<?xml version="1.0" standalone="no"?>
<!DOCTYPE svg PUBLIC "-//W3C//DTD SVG 20010904//EN"
 "http://www.w3.org/TR/2001/REC-SVG-20010904/DTD/svg10.dtd">
<svg version="1.0" xmlns="http://www.w3.org/2000/svg"
 width="300.000000pt" height="300.000000pt" viewBox="0 0 300.000000 300.000000"
 preserveAspectRatio="xMidYMid meet">
<metadata>
Created by potrace 1.14, written by Peter Selinger 2001-2017
</metadata>
<g transform="translate(0.000000,300.000000) scale(0.100000,-0.100000)"
fill="#000000" stroke="none">
<path d="M617 2741 c-27 -9 -59 -26 -70 -37 -41 -37 -68 -75 -64 -87 3 -7 -6
-23 -18 -37 -35 -38 -37 -93 -4 -111 18 -9 24 -8 32 6 28 51 152 151 200 161
44 9 182 7 202 -3 11 -6 41 -13 66 -17 25 -4 56 -16 67 -26 12 -11 25 -20 29
-20 9 0 19 -16 41 -66 31 -66 38 -78 55 -88 19 -12 43 -2 60 26 27 42 -51 169
-135 221 -43 26 -175 76 -218 82 -93 14 -196 12 -243 -4z"/>
<path d="M2028 2745 c-2 -2 -19 -4 -38 -6 -19 -2 -40 -7 -47 -11 -6 -5 -24
-11 -40 -14 -15 -3 -35 -11 -43 -18 -8 -7 -28 -16 -44 -20 -16 -4 -51 -28 -78
-54 -43 -42 -50 -53 -55 -100 -5 -52 -5 -52 24 -52 28 0 60 17 94 51 25 25
139 87 174 94 82 17 131 13 226 -18 147 -49 189 -85 198 -169 1 -4 14 -14 29
-22 23 -12 33 -12 53 -3 32 16 39 69 11 89 -11 7 -22 24 -27 37 -8 27 -57 74
-100 95 -63 32 -171 77 -193 81 -12 2 -27 7 -33 11 -14 8 -107 33 -111 29z"/>
<path d="M337 2629 c-35 -20 -103 -26 -165 -13 -35 7 -74 -12 -91 -45 -8 -14
-6 -25 10 -45 23 -29 23 -84 -1 -181 -7 -27 -14 -66 -15 -85 -1 -19 -5 -42 -9
-50 -4 -9 -15 -51 -25 -95 -11 -44 -24 -81 -30 -83 -18 -6 -14 -89 5 -96 31
-12 66 -6 83 15 15 18 29 21 115 23 90 2 100 4 117 25 11 13 19 27 19 31 0 12
-54 37 -71 34 -99 -19 -141 -26 -144 -23 -3 4 -17 75 -17 94 -1 27 24 94 42
110 16 14 36 18 93 18 39 0 86 -4 103 -8 29 -6 32 -4 43 26 10 30 9 35 -11 50
-12 10 -25 16 -28 14 -3 -2 -40 -7 -81 -10 -40 -4 -79 -8 -85 -10 -6 -2 -17 1
-24 5 -11 7 -11 22 -1 82 7 40 18 83 26 95 16 24 69 37 162 37 34 1 64 4 67 7
3 3 9 19 12 36 5 27 3 31 -27 42 -39 13 -49 13 -72 0z"/>
<path d="M2590 2534 c-12 -14 -11 -21 6 -53 11 -20 20 -40 19 -46 -2 -22 -18
-61 -31 -76 -12 -13 -11 -18 6 -36 42 -46 84 2 93 103 6 66 -18 118 -54 122
-15 2 -32 -4 -39 -14z"/>
<path d="M2247 2399 c-16 -4 -44 -19 -63 -34 -25 -19 -40 -24 -57 -19 -32 11
-40 11 -61 1 -14 -7 -17 -15 -11 -40 8 -36 7 -75 -1 -193 -5 -66 -3 -84 10
-96 35 -36 76 5 76 77 0 30 4 35 43 49 23 9 60 17 82 18 38 3 40 2 40 -27 0
-16 -3 -43 -7 -58 -8 -34 6 -61 39 -76 41 -19 133 33 133 75 0 26 -18 35 -43
22 -24 -12 -46 -4 -47 19 -6 123 -12 167 -33 228 -16 46 -55 67 -100 54z m53
-125 c0 -28 -10 -34 -74 -49 -65 -15 -80 -11 -64 18 12 24 35 43 82 69 29 15
32 16 44 0 6 -8 12 -26 12 -38z"/>
<path d="M2815 2391 c-16 -10 -42 -33 -58 -52 -23 -28 -26 -39 -22 -78 3 -25
7 -45 8 -46 1 -1 15 -9 30 -18 15 -10 54 -20 87 -23 33 -2 75 -13 93 -23 54
-31 38 -94 -32 -122 -24 -9 -104 7 -116 24 -6 9 -23 19 -37 22 -35 9 -83 -32
-74 -62 8 -26 43 -40 126 -49 90 -10 114 -8 149 7 l31 14 0 118 c0 135 3 131
-101 140 -95 8 -107 22 -62 69 32 33 90 40 99 11 11 -35 21 -48 43 -51 19 -3
21 1 21 52 0 45 -4 58 -22 70 -32 23 -125 21 -163 -3z"/>
<path d="M1004 2373 c-88 -49 -113 -73 -125 -115 -14 -55 -7 -132 17 -183 14
-30 31 -46 67 -63 45 -22 49 -22 96 -6 27 9 52 22 55 30 3 8 11 14 18 14 7 0
25 24 40 54 45 91 28 183 -46 257 -30 31 -80 35 -122 12z m113 -95 c16 -30 18
-54 8 -106 -10 -55 -64 -112 -106 -112 -86 0 -103 180 -19 197 27 5 31 10 27
30 -10 51 64 44 90 -9z"/>
<path d="M1335 2381 c-11 -5 -35 -22 -53 -39 -34 -32 -42 -75 -23 -125 13 -34
71 -65 133 -71 28 -3 55 -11 60 -18 16 -27 8 -46 -24 -57 -44 -13 -71 -10 -92
12 -13 12 -30 17 -55 15 -32 -3 -36 -6 -39 -35 -3 -25 2 -35 23 -49 37 -24
109 -25 174 -2 65 22 89 41 100 82 17 64 -25 116 -97 122 -93 9 -125 26 -115
63 10 38 76 39 88 1 16 -49 84 -17 71 33 -12 49 -101 89 -151 68z"/>
<path d="M1648 2355 c-8 -19 -8 -31 1 -51 11 -24 9 -79 -5 -164 -6 -40 14 -97
43 -119 37 -30 74 -26 131 13 47 33 51 34 66 17 9 -10 16 -23 16 -29 0 -17 34
-24 63 -13 50 19 59 81 12 81 -13 0 -31 7 -40 17 -19 18 -15 73 11 146 20 55
11 93 -23 100 -15 3 -32 3 -38 1 -16 -6 -37 -63 -40 -104 -6 -105 -34 -162
-87 -174 -30 -7 -35 -2 -42 40 -10 58 -7 120 8 167 8 26 16 49 18 51 2 2 -6
13 -16 25 -26 29 -64 27 -78 -4z"/>
<path d="M766 2339 c-10 -15 -12 -28 -6 -39 5 -9 5 -22 0 -30 -5 -8 -7 -25 -4
-36 3 -12 1 -25 -5 -28 -6 -4 -11 -16 -11 -27 0 -10 -3 -19 -6 -19 -9 0 -84
79 -84 88 0 4 -9 15 -20 25 -11 9 -20 24 -20 32 0 24 -58 45 -87 32 -27 -12
-51 -73 -34 -90 22 -22 4 -112 -31 -155 -16 -19 -10 -84 8 -99 22 -16 73 3 79
30 2 12 6 45 9 72 6 71 17 115 27 115 10 0 49 -41 49 -52 0 -5 11 -13 25 -18
14 -5 25 -15 25 -22 0 -7 7 -31 16 -54 20 -52 54 -65 93 -37 23 18 25 25 26
124 2 81 7 114 23 149 11 24 19 46 17 49 -3 2 -20 5 -39 8 -27 2 -38 -2 -50
-18z"/>
<path d="M330 1949 c-15 -27 -5 -94 20 -136 11 -19 20 -47 20 -62 0 -19 14
-43 45 -77 25 -27 57 -70 70 -95 13 -25 35 -53 49 -62 28 -19 81 -23 91 -6 12
19 7 82 -6 93 -8 6 -15 17 -17 25 -1 7 -23 34 -48 59 -73 72 -134 170 -134
212 0 59 -66 95 -90 49z"/>
<path d="M2514 1902 c-18 -2 -23 -13 -29 -50 -3 -26 -17 -70 -31 -99 -13 -28
-24 -55 -24 -58 0 -9 -52 -78 -68 -90 -19 -15 -9 -66 16 -83 21 -14 25 -12 65
30 23 25 47 56 53 69 22 45 62 144 69 169 4 14 14 40 23 58 21 47 -5 66 -74
54z"/>
<path d="M1385 1658 c-22 -13 -42 -26 -45 -30 -3 -4 -24 -6 -46 -5 -57 2 -69
-14 -68 -90 1 -70 -16 -149 -44 -196 -10 -18 -20 -54 -21 -81 -2 -27 -7 -60
-12 -73 -14 -38 -11 -61 10 -73 31 -16 77 28 78 74 2 66 20 80 128 99 53 10
100 15 104 12 5 -2 0 -34 -10 -71 -38 -137 -30 -184 29 -184 64 0 115 58 87
97 -13 17 -14 17 -35 -2 l-23 -20 7 60 c10 90 13 107 26 140 7 17 14 84 15
150 2 102 0 126 -16 157 -11 21 -27 41 -37 46 -34 17 -87 12 -127 -10z m105
-63 c7 -9 12 -46 11 -100 -1 -72 -4 -89 -23 -110 -12 -14 -32 -25 -45 -25 -14
0 -32 -4 -41 -9 -9 -4 -41 -11 -71 -14 l-53 -6 6 37 c13 80 17 96 36 131 11
20 27 46 37 58 38 47 118 68 143 38z"/>
<path d="M2243 1535 c-17 -7 -33 -12 -35 -9 -3 2 -29 -5 -59 -16 -29 -11 -63
-20 -75 -20 -12 0 -31 -8 -42 -17 -16 -14 -19 -23 -11 -42 8 -21 13 -23 51
-17 23 4 47 11 53 15 5 5 20 5 31 1 19 -7 21 -15 18 -60 -1 -28 -6 -66 -10
-83 -4 -18 -7 -38 -5 -45 1 -8 -5 -24 -13 -37 -21 -31 -26 -67 -14 -82 16 -20
73 -16 93 7 16 18 17 26 7 68 -11 49 -9 132 5 191 7 27 15 37 38 43 55 15 96
65 77 94 -12 19 -75 24 -109 9z"/>
<path d="M635 1486 c-17 -17 -23 -35 -24 -72 -1 -27 -3 -60 -5 -74 -3 -27 -48
-60 -75 -55 -9 2 -24 4 -33 4 -33 2 -40 36 -19 96 15 41 17 63 11 81 -5 13
-13 24 -17 25 -5 0 -16 2 -26 4 -9 2 -28 -6 -41 -17 -21 -19 -22 -25 -13 -67
11 -55 10 -91 -4 -128 -5 -14 -9 -53 -8 -86 2 -38 -2 -61 -10 -66 -22 -14 -7
-65 22 -75 22 -8 30 -5 50 15 23 24 27 50 14 105 -8 34 5 43 71 48 57 5 62 3
62 -15 0 -11 -7 -36 -15 -55 -11 -28 -12 -39 -2 -54 14 -24 34 -32 56 -25 21
6 44 83 38 123 -3 17 1 39 9 50 11 17 12 30 3 69 -10 43 -9 54 10 96 16 35 19
52 12 66 -17 30 -40 33 -66 7z"/>
<path d="M965 1484 c-22 -7 -56 -13 -75 -13 -41 -1 -100 -34 -100 -56 0 -9 7
-26 15 -39 16 -24 15 -47 -5 -104 -7 -18 -10 -36 -7 -39 4 -3 0 -18 -8 -33
-10 -19 -12 -44 -8 -78 5 -45 9 -52 35 -61 16 -6 39 -7 51 -3 12 5 33 7 47 5
96 -11 154 2 163 37 10 37 -28 52 -100 38 -78 -14 -89 -10 -91 41 -2 53 13 63
106 65 54 1 72 13 72 47 0 30 -27 42 -78 34 -81 -13 -95 -12 -98 9 -1 10 10
32 25 47 22 21 35 27 56 23 59 -11 74 -7 84 19 10 27 -5 64 -28 69 -9 2 -34
-1 -56 -8z"/>
<path d="M1703 1440 c-21 -9 -29 -29 -23 -55 9 -36 6 -63 -11 -112 -10 -31
-19 -82 -19 -113 0 -57 11 -78 38 -74 6 1 17 2 22 3 6 0 16 12 22 26 7 16 25
29 51 37 43 13 39 15 90 -57 33 -46 96 -24 117 41 10 30 10 39 -2 50 -13 13
-18 12 -40 -6 -15 -11 -29 -20 -32 -20 -12 0 -34 56 -26 70 15 29 21 120 10
160 -9 34 -15 40 -46 46 -20 4 -46 2 -58 -4 -16 -7 -27 -6 -41 4 -21 16 -22
16 -52 4z m145 -121 c3 -41 -8 -53 -56 -64 -31 -6 -33 -5 -29 19 4 36 45 88
65 84 11 -2 18 -15 20 -39z"/>
<path d="M1870 1000 c-8 -5 -26 -10 -40 -10 -32 0 -50 -17 -50 -46 0 -12 -7
-27 -16 -35 -9 -7 -52 -60 -97 -118 -83 -108 -104 -131 -214 -247 l-62 -66
-29 17 c-15 9 -39 38 -52 64 -38 71 -82 126 -209 255 -64 65 -125 129 -137
142 -17 18 -27 21 -55 15 -19 -4 -33 -12 -32 -18 1 -6 -9 -14 -22 -17 -26 -7
-35 -26 -12 -26 17 0 134 -112 188 -180 58 -73 98 -119 132 -151 15 -15 27
-30 27 -34 0 -4 18 -27 40 -52 22 -25 40 -55 40 -67 0 -12 20 -43 45 -70 42
-46 47 -48 82 -43 21 4 40 12 42 18 2 6 16 26 32 44 16 18 29 37 29 41 0 5 17
20 38 32 36 23 71 69 202 262 95 141 119 169 162 191 37 19 43 28 38 59 -2 19
-30 50 -44 50 -6 0 -18 -5 -26 -10z"/>
</g>
</svg>
